<?xml version="1.0" encoding="UTF-8"?>
<svg width="44px" height="44px" viewBox="0 0 44 44" version="1.1" xmlns="http://www.w3.org/2000/svg" xmlns:xlink="http://www.w3.org/1999/xlink">
    <!-- Generator: Sketch 58 (84663) - https://sketch.com -->
    <title>编组</title>
    <desc>Created with Sketch.</desc>
    <defs>
        <linearGradient x1="8.63882344%" y1="50%" x2="93.5473721%" y2="50%" id="linearGradient-1">
            <stop stop-color="#FA8C6E" offset="0%"></stop>
            <stop stop-color="#F9714C" offset="100%"></stop>
        </linearGradient>
    </defs>
    <g id="页面-1" stroke="currentColor" stroke-width="1" fill="none" fill-rule="evenodd">
        <g id="2.0-1首页01-待处理备份" transform="translate(-436.000000, -1090.000000)" fill="url(#linearGradient-1)" fill-rule="nonzero">
            <g id="编组-2">
                <g id="编组" transform="translate(436.000000, 1090.000000)">
                    <path d="M11.240625,2.98080357 L11.240625,6.62455357 C11.240625,8.04375 12.3946429,9.19285714 13.8089286,9.19285714 C15.1735405,9.19285714 16.2884397,8.12590276 16.3721826,6.7865345 L16.3772321,6.62455357 L16.3772321,2.98080357 L26.640625,2.98080357 L26.640625,6.62455357 C26.640625,8.04375 27.7946429,9.19285714 29.2089286,9.19285714 C30.5735405,9.19285714 31.6884397,8.12590276 31.7721826,6.7865345 L31.7772321,6.62455357 L31.7772321,2.98080357 L36.6535714,2.98080357 C40.0980105,2.98080357 42.8986145,5.70652849 43.0141607,9.12134691 L43.0178635,9.35 L43.0178635,37.6357143 C43.0178635,41.0753494 40.2921325,43.875849 36.8819112,43.9959843 L36.6535714,44 L6.36428571,44 C2.92465062,44 0.124151026,41.2742751 0.00401571068,37.8686514 L7.10542736e-15,37.640625 L7.10542736e-15,9.35 C7.10542736e-15,5.90556095 2.72572492,3.10495692 6.13134861,2.98481933 L6.359375,2.98080357 L11.240625,2.98080357 Z M34.7334821,13.2589286 L8.284375,13.2589286 C6.07485119,13.2589286 4.27167659,14.9951479 4.16442223,17.1780155 L4.159375,17.3839286 L4.159375,35.6910714 C4.159375,37.9005952 5.89559434,39.7037698 8.07846197,39.8110242 L8.284375,39.8160714 L34.7334821,39.8160714 C36.943006,39.8160714 38.7461806,38.0798521 38.8534349,35.8969845 L38.8584821,35.6910714 L38.8584821,17.3839286 C38.8584821,15.1053571 37.0120536,13.2589286 34.7334821,13.2589286 Z M11.2504464,29.5919643 L31.7674107,29.5919643 C32.6316964,29.5919643 33.3339286,30.284375 33.3388393,31.1535714 C33.3388393,31.9744792 32.7124656,32.6420786 31.9147759,32.7137227 L31.7723214,32.7200893 L11.2504464,32.7200893 C10.3861607,32.7200893 9.68392857,32.0276786 9.68392857,31.1584821 C9.68392857,30.3375744 10.3103023,29.6699749 11.1079919,29.5983309 L11.2504464,29.5919643 L31.7674107,29.5919643 Z M11.2504464,20.4040179 L31.7674107,20.4040179 C32.6316964,20.4040179 33.3339286,21.1013393 33.3388393,21.9705357 C33.3388393,22.7914435 32.7124656,23.4590429 31.9147759,23.530687 L31.7723214,23.5370536 L11.2504464,23.5370536 C10.38125,23.5370536 9.68392857,22.8348214 9.68392857,21.9705357 C9.68392857,21.149628 10.3103023,20.4820285 11.1079919,20.4103844 L11.2504464,20.4040179 L31.7674107,20.4040179 Z M13.8089286,5.86197757e-14 C14.6486607,5.86197757e-14 15.33125,0.682589286 15.33125,1.52232143 L15.33125,1.52232143 L15.33125,6.64910714 C15.33125,7.48883929 14.6486607,8.17142857 13.8089286,8.17142857 C12.9691964,8.17142857 12.2915179,7.49375 12.2866071,6.65401786 L12.2866071,6.65401786 L12.2866071,1.52232143 C12.2866071,0.682589286 12.9691964,5.86197757e-14 13.8089286,5.86197757e-14 Z M29.2089286,5.86197757e-14 C30.0486607,5.86197757e-14 30.73125,0.682589286 30.73125,1.52232143 L30.73125,1.52232143 L30.73125,6.64910714 C30.73125,7.48883929 30.0486607,8.17142857 29.2089286,8.17142857 C28.3691964,8.17142857 27.6866071,7.49375 27.6866071,6.65401786 L27.6866071,6.65401786 L27.6866071,1.52232143 C27.6866071,0.682589286 28.3691964,5.86197757e-14 29.2089286,5.86197757e-14 Z" id="形状结合"></path>
                </g>
            </g>
        </g>
    </g>
</svg>
