<?xml version="1.0" encoding="UTF-8"?>
<svg width="20px" height="24px" viewBox="0 0 20 24" version="1.1" xmlns="http://www.w3.org/2000/svg" xmlns:xlink="http://www.w3.org/1999/xlink">
    <title>形状</title>
    <desc>Created with Sketch.</desc>
    <g id="九毛九项目内容" stroke-width="1" fill="currentColor" fill-rule="evenodd">
        <g id="iPhone-X备份-5" transform="translate(-138.000000, -802.000000)"  stroke="currentColor"  fill="currentColor" fill-rule="nonzero">
            <g id="编组" transform="translate(138.000000, 802.000000)">
                <path d="M19.4972222,3.40187135 C19.2056713,3.13 18.8240451,2.99406433 18.444184,2.99406433 L18.3322049,2.99406433 C18.3096644,2.99406433 18.0631366,3.01684211 17.6821181,3.01684211 C17.0320312,3.01684211 15.8000289,2.97131579 14.6130787,2.67730994 C13.0889178,2.31561404 11.3188657,0.617309942 10.8032986,0.277192982 C10.5573495,0.118479532 10.243287,0.0280701754 9.95173611,0.0280701754 C9.66076389,0.0280701754 9.3698206,0.118479532 9.10075231,0.277192982 C9.03382523,0.322690058 7.19678819,2.24672515 5.4041956,2.67730994 C4.21663773,2.97131579 2.93958333,3.01684211 2.31261574,3.01684211 C1.90908565,3.01684211 1.66313657,2.99406433 1.640625,2.99406433 L1.55115741,2.99406433 C1.14759838,2.99406433 0.7890625,3.13002924 0.498119213,3.40187135 C0.184635417,3.67374269 0.00564236111,4.08096491 0.00564236111,4.48877193 L0.00564236111,8.24643275 C0.00564236111,22.1027485 9.30286458,23.8902632 9.6838831,23.958538 C9.77337963,23.9812865 9.86345486,23.9812865 9.95234375,23.9812865 C10.0418113,23.9812865 10.1324942,23.9812865 10.2219618,23.958538 C10.6249132,23.8902632 19.9671586,22.1021637 19.9671586,8.24643275 L19.9671586,4.48877193 C19.9671586,4.08096491 19.7870081,3.67374269 19.4972222,3.40187135 L19.4972222,3.40187135 Z M16.0465567,8.7680117 L9.61631944,15.0611111 C9.5712963,15.129386 9.52685185,15.1976608 9.45928819,15.2431579 C9.27974537,15.4240058 9.03382523,15.5144152 8.78729745,15.5144152 C8.54019097,15.5144152 8.2942419,15.4240058 8.0927662,15.2431579 C8.04774306,15.1976316 7.98136574,15.13 7.95824653,15.0611111 L4.50818866,11.6878947 C4.14968171,11.325614 4.14968171,10.7603216 4.50818866,10.3980117 C4.8661169,10.0351462 5.47115162,10.0351462 5.82965856,10.3980117 L8.78729745,13.2730117 L14.7245081,7.47751462 C15.1061053,7.11523392 15.6874711,7.11523392 16.045978,7.47751462 C16.4269965,7.81704678 16.4269965,8.40570175 16.0465567,8.7680117 Z" id="形状"></path>
            </g>
        </g>
    </g>
</svg>
