<svg xmlns="http://www.w3.org/2000/svg" xlink="http://www.w3.org/1999/xlink" width="0" height="0" style="display:none;"><symbol id="icon-date">
    <!-- Generator: Sketch 58 (84663) - https://sketch.com -->
    <title>&#x7F16;&#x7EC4;</title>
    <desc>Created with Sketch.</desc>
    <defs>
        <linearGradient x1="8.63882344%" y1="50%" x2="93.5473721%" y2="50%" id="linearGradient-1">
            <stop stop-color="#FA8C6E" offset="0%"/>
            <stop stop-color="#F9714C" offset="100%"/>
        </linearGradient>
    </defs>
    <g id="&#x9875;&#x9762;-1" stroke="none" stroke-width="1" fill="none" fill-rule="evenodd">
        <g id="2.0-1&#x9996;&#x9875;01-&#x5F85;&#x5904;&#x7406;&#x5907;&#x4EFD;" transform="translate(-436.000000, -1090.000000)" fill="url(#linearGradient-1)" fill-rule="nonzero">
            <g id="&#x7F16;&#x7EC4;-2">
                <g id="&#x7F16;&#x7EC4;" transform="translate(436.000000, 1090.000000)">
                    <path d="M11.240625,2.98080357 L11.240625,6.62455357 C11.240625,8.04375 12.3946429,9.19285714 13.8089286,9.19285714 C15.1735405,9.19285714 16.2884397,8.12590276 16.3721826,6.7865345 L16.3772321,6.62455357 L16.3772321,2.98080357 L26.640625,2.98080357 L26.640625,6.62455357 C26.640625,8.04375 27.7946429,9.19285714 29.2089286,9.19285714 C30.5735405,9.19285714 31.6884397,8.12590276 31.7721826,6.7865345 L31.7772321,6.62455357 L31.7772321,2.98080357 L36.6535714,2.98080357 C40.0980105,2.98080357 42.8986145,5.70652849 43.0141607,9.12134691 L43.0178635,9.35 L43.0178635,37.6357143 C43.0178635,41.0753494 40.2921325,43.875849 36.8819112,43.9959843 L36.6535714,44 L6.36428571,44 C2.92465062,44 0.124151026,41.2742751 0.00401571068,37.8686514 L7.10542736e-15,37.640625 L7.10542736e-15,9.35 C7.10542736e-15,5.90556095 2.72572492,3.10495692 6.13134861,2.98481933 L6.359375,2.98080357 L11.240625,2.98080357 Z M34.7334821,13.2589286 L8.284375,13.2589286 C6.07485119,13.2589286 4.27167659,14.9951479 4.16442223,17.1780155 L4.159375,17.3839286 L4.159375,35.6910714 C4.159375,37.9005952 5.89559434,39.7037698 8.07846197,39.8110242 L8.284375,39.8160714 L34.7334821,39.8160714 C36.943006,39.8160714 38.7461806,38.0798521 38.8534349,35.8969845 L38.8584821,35.6910714 L38.8584821,17.3839286 C38.8584821,15.1053571 37.0120536,13.2589286 34.7334821,13.2589286 Z M11.2504464,29.5919643 L31.7674107,29.5919643 C32.6316964,29.5919643 33.3339286,30.284375 33.3388393,31.1535714 C33.3388393,31.9744792 32.7124656,32.6420786 31.9147759,32.7137227 L31.7723214,32.7200893 L11.2504464,32.7200893 C10.3861607,32.7200893 9.68392857,32.0276786 9.68392857,31.1584821 C9.68392857,30.3375744 10.3103023,29.6699749 11.1079919,29.5983309 L11.2504464,29.5919643 L31.7674107,29.5919643 Z M11.2504464,20.4040179 L31.7674107,20.4040179 C32.6316964,20.4040179 33.3339286,21.1013393 33.3388393,21.9705357 C33.3388393,22.7914435 32.7124656,23.4590429 31.9147759,23.530687 L31.7723214,23.5370536 L11.2504464,23.5370536 C10.38125,23.5370536 9.68392857,22.8348214 9.68392857,21.9705357 C9.68392857,21.149628 10.3103023,20.4820285 11.1079919,20.4103844 L11.2504464,20.4040179 L31.7674107,20.4040179 Z M13.8089286,5.86197757e-14 C14.6486607,5.86197757e-14 15.33125,0.682589286 15.33125,1.52232143 L15.33125,1.52232143 L15.33125,6.64910714 C15.33125,7.48883929 14.6486607,8.17142857 13.8089286,8.17142857 C12.9691964,8.17142857 12.2915179,7.49375 12.2866071,6.65401786 L12.2866071,6.65401786 L12.2866071,1.52232143 C12.2866071,0.682589286 12.9691964,5.86197757e-14 13.8089286,5.86197757e-14 Z M29.2089286,5.86197757e-14 C30.0486607,5.86197757e-14 30.73125,0.682589286 30.73125,1.52232143 L30.73125,1.52232143 L30.73125,6.64910714 C30.73125,7.48883929 30.0486607,8.17142857 29.2089286,8.17142857 C28.3691964,8.17142857 27.6866071,7.49375 27.6866071,6.65401786 L27.6866071,6.65401786 L27.6866071,1.52232143 C27.6866071,0.682589286 28.3691964,5.86197757e-14 29.2089286,5.86197757e-14 Z" id="&#x5F62;&#x72B6;&#x7ED3;&#x5408;"/>
                </g>
            </g>
        </g>
    </g>
</symbol><symbol id="icon-vip_card">
    <!-- Generator: Sketch 63.1 (92452) - https://sketch.com -->
    <title>&#x7F16;&#x7EC4; 4</title>
    <desc>Created with Sketch.</desc>
    <defs>
        <linearGradient x1="0%" y1="50%" x2="100%" y2="50%" id="linearGradient-1">
            <stop stop-color="#FFF0D6" offset="0%"/>
            <stop stop-color="#FCDFB0" offset="100%"/>
        </linearGradient>
    </defs>
    <g id="&#x4F1A;&#x5458;&#x4E2D;&#x5FC3;" stroke="none" stroke-width="1" fill="none" fill-rule="evenodd">
        <g id="&#x753B;&#x677F;" transform="translate(-682.000000, -307.000000)">
            <g id="&#x7F16;&#x7EC4;-4" transform="translate(682.000000, 307.000000)">
                <circle id="&#x692D;&#x5706;&#x5F62;&#x5907;&#x4EFD;-4" fill="url(#linearGradient-1)" cx="43" cy="43" r="43"/>
                <path d="M52.2771855,47.5228159 C52.2771855,46.7117653 52.5607676,45.9818199 53.1684435,45.41449 C53.7356077,44.8463491 54.4648188,44.5223345 55.2750533,44.5223345 C56.0852878,44.5223345 56.7739872,44.8062021 57.3816631,45.41449 C57.9488273,45.9818199 58.2324094,46.7117653 58.2324094,47.5228159 C58.2324094,48.3338664 57.9488273,49.0642174 57.3816631,49.6315472 C56.8144989,50.1996881 56.0852878,50.4835558 55.2750533,50.4835558 C54.4648188,50.4835558 53.7356077,50.1996881 53.1684435,49.6315472 C52.5607676,49.0642174 52.2771855,48.3748244 52.2771855,47.5228159 L52.2771855,47.5228159 Z M58.1108742,25.4626473 C57.989339,25.1783741 57.7867804,24.9350589 57.5842217,24.7322963 C56.8955224,24.0433089 55.8017058,23.8405463 54.3837953,24.1240084 L27.2004264,28.7875489 C27.0788913,28.8281014 26.9573561,28.8686539 26.8358209,28.909612 C26.3901919,29.030864 26.0255864,29.2336267 25.6609808,29.5178999 C24.5266525,30.3695029 24,31.7073308 24,33.4510894 L24,58.2692352 L24,59.3240064 C24.0810235,59.9724413 24.3646055,60.5405822 24.891258,61.0673595 C25.4179104,61.6355004 26.0660981,61.9189625 26.7953092,62.0000676 L27.6055437,62.0000676 L58.434968,62.0000676 L59.2452026,62.0000676 C59.9744136,61.9189625 60.5820896,61.5945423 61.108742,61.0673595 C61.6353945,60.5807292 61.9189765,59.9724413 62,59.2830484 L62,58.3101933 L62,36.6952914 L62,35.7625833 C61.8784648,35.0731904 61.5948827,34.4649025 61.108742,33.9377197 C60.5820896,33.4109424 59.9744136,33.1266692 59.2452026,33.0455641 L58.3944563,33.0455641 L29.9147122,33.0455641 L29.5501066,32.9648646 C29.3070362,32.883354 29.0639659,32.8026545 28.8208955,32.6805914 C28.1321962,32.3156186 27.7675906,31.9100934 27.7675906,31.3427635 L58.1918977,28.3418766 L58.1918977,25.786662 L58.1108742,25.4626473 Z" id="Fill-1" fill="#64481E"/>
            </g>
        </g>
    </g>
</symbol></svg>