<?xml version="1.0" encoding="UTF-8"?>
<svg width="86px" height="86px" viewBox="0 0 86 86" version="1.1" xmlns="http://www.w3.org/2000/svg" xmlns:xlink="http://www.w3.org/1999/xlink">
    <!-- Generator: Sketch 63.1 (92452) - https://sketch.com -->
    <title>编组 4</title>
    <desc>Created with Sketch.</desc>
    <defs>
        <linearGradient x1="0%" y1="50%" x2="100%" y2="50%" id="linearGradient-1">
            <stop stop-color="#FFF0D6" offset="0%"></stop>
            <stop stop-color="#FCDFB0" offset="100%"></stop>
        </linearGradient>
    </defs>
    <g id="会员中心" stroke="none" stroke-width="1" fill="none" fill-rule="evenodd">
        <g id="画板" transform="translate(-682.000000, -307.000000)">
            <g id="编组-4" transform="translate(682.000000, 307.000000)">
                <circle id="椭圆形备份-4" fill="url(#linearGradient-1)" cx="43" cy="43" r="43"></circle>
                <path d="M52.2771855,47.5228159 C52.2771855,46.7117653 52.5607676,45.9818199 53.1684435,45.41449 C53.7356077,44.8463491 54.4648188,44.5223345 55.2750533,44.5223345 C56.0852878,44.5223345 56.7739872,44.8062021 57.3816631,45.41449 C57.9488273,45.9818199 58.2324094,46.7117653 58.2324094,47.5228159 C58.2324094,48.3338664 57.9488273,49.0642174 57.3816631,49.6315472 C56.8144989,50.1996881 56.0852878,50.4835558 55.2750533,50.4835558 C54.4648188,50.4835558 53.7356077,50.1996881 53.1684435,49.6315472 C52.5607676,49.0642174 52.2771855,48.3748244 52.2771855,47.5228159 L52.2771855,47.5228159 Z M58.1108742,25.4626473 C57.989339,25.1783741 57.7867804,24.9350589 57.5842217,24.7322963 C56.8955224,24.0433089 55.8017058,23.8405463 54.3837953,24.1240084 L27.2004264,28.7875489 C27.0788913,28.8281014 26.9573561,28.8686539 26.8358209,28.909612 C26.3901919,29.030864 26.0255864,29.2336267 25.6609808,29.5178999 C24.5266525,30.3695029 24,31.7073308 24,33.4510894 L24,58.2692352 L24,59.3240064 C24.0810235,59.9724413 24.3646055,60.5405822 24.891258,61.0673595 C25.4179104,61.6355004 26.0660981,61.9189625 26.7953092,62.0000676 L27.6055437,62.0000676 L58.434968,62.0000676 L59.2452026,62.0000676 C59.9744136,61.9189625 60.5820896,61.5945423 61.108742,61.0673595 C61.6353945,60.5807292 61.9189765,59.9724413 62,59.2830484 L62,58.3101933 L62,36.6952914 L62,35.7625833 C61.8784648,35.0731904 61.5948827,34.4649025 61.108742,33.9377197 C60.5820896,33.4109424 59.9744136,33.1266692 59.2452026,33.0455641 L58.3944563,33.0455641 L29.9147122,33.0455641 L29.5501066,32.9648646 C29.3070362,32.883354 29.0639659,32.8026545 28.8208955,32.6805914 C28.1321962,32.3156186 27.7675906,31.9100934 27.7675906,31.3427635 L58.1918977,28.3418766 L58.1918977,25.786662 L58.1108742,25.4626473 Z" id="Fill-1" fill="#64481E"></path>
            </g>
        </g>
    </g>
</svg>